<svg width="85" height="59" viewBox="0 0 85 59" fill="none" xmlns="http://www.w3.org/2000/svg">
<path fill-rule="evenodd" clip-rule="evenodd" d="M0.351452 17.924C0.351452 8.21895 8.21897 0.35144 17.924 0.35144H77.6708C79.9453 0.35144 82.119 0.783582 84.114 1.57024C77.4711 13.512 68.9035 16.8544 52.1107 16.8544C38.5473 16.8544 30.3526 30.644 26.7738 38.503L27.2961 35.4966V18.9784H0.382562C0.361919 18.6296 0.351452 18.278 0.351452 17.924Z" fill="#007C91"/>
<path d="M84.114 1.57024C82.119 0.783582 79.9453 0.35144 77.6708 0.35144H17.924C8.21897 0.35144 0.351452 8.21895 0.351452 17.924C0.351452 18.278 0.361919 18.6296 0.382562 18.9784H27.2961V35.4966L26.7738 38.503M84.114 1.57024C77.4711 13.512 68.9035 16.8544 52.1107 16.8544C38.5473 16.8544 30.3526 30.644 26.7738 38.503M84.114 1.57024C83.3538 3.28073 84.9196 0.122061 84.114 1.57024ZM26.7738 38.503C25.3844 41.5542 29.3009 31.474 26.7738 38.503Z" stroke="white" stroke-width="0.702903"/>
<path fill-rule="evenodd" clip-rule="evenodd" d="M60.5622 21.6073C50.7486 21.6073 43.4453 22.8351 41.7527 24.8827C37.9686 28.3423 36.0195 35.5575 36.0195 47.666C36.0195 52.8207 34.0505 55.7447 31.9104 57.442C32.0713 57.649 32.2357 57.8531 32.4034 58.0544C36.3973 57.397 43.9635 54.9541 45.2433 49.8282C45.8454 47.4169 46.1013 45.5714 46.309 44.0731C46.6726 41.4511 46.8887 39.8922 48.5545 38.2243C50.3738 36.4025 55.0709 36.2896 60.0992 36.1687C64.2221 36.0695 68.5677 35.9651 71.7322 34.9088C78.0932 32.7858 79.3717 27.3393 80.9058 23.1312C81.082 22.5266 81.2629 21.6073 81.8251 21.6073C78.9853 21.6073 76.4716 21.6073 73.6471 21.6073H60.5622Z" fill="#007C91"/>
<path d="M31.9104 57.442C34.0505 55.7447 36.0195 52.8207 36.0195 47.666C36.0195 35.5575 37.9686 28.3423 41.7527 24.8827C43.4453 22.8351 50.7486 21.6073 60.5622 21.6073H73.6471C76.4716 21.6073 78.9853 21.6073 81.8251 21.6073M31.9104 57.442C32.0713 57.649 32.2357 57.8531 32.4034 58.0544M31.9104 57.442C29.988 58.9667 32.8942 57.8439 31.9989 58.1167C32.1291 58.0981 32.2641 58.0773 32.4034 58.0544M32.4034 58.0544C36.3973 57.397 43.9635 54.9541 45.2433 49.8282C45.8454 47.4169 46.1013 45.5714 46.309 44.0731C46.6725 41.4511 46.8887 39.8922 48.5545 38.2243C50.3738 36.4025 55.0709 36.2896 60.0992 36.1687C64.2221 36.0696 68.5677 35.9651 71.7322 34.9088C78.0932 32.7858 79.3717 27.3393 80.9058 23.1312C81.082 22.5266 81.2629 21.6073 81.8251 21.6073M81.8251 21.6073C82.3145 20.1025 82.4406 18.7726 83.3211 18.3318" stroke="white" stroke-width="0.702903"/>
<path d="M79.7318 24.992C78.355 28.927 76.5736 33.5 70.7914 35.4276C67.5093 36.5214 63.0257 36.6261 58.848 36.7264C56.2833 36.788 53.8291 36.8465 51.7855 37.119C49.7228 37.394 48.1721 37.8771 47.3363 38.7127C45.7338 40.3153 45.5217 41.7859 45.1508 44.4578C45.0156 45.4313 44.8586 46.5541 44.6029 47.8817L44.5306 37.3885C44.4843 30.6773 49.8868 25.1989 56.598 25.1522L79.7318 24.992Z" fill="#D9D9D9"/>
<path d="M79.7318 24.992C78.355 28.927 76.5736 33.5 70.7914 35.4276C67.5093 36.5214 63.0257 36.6261 58.848 36.7264C56.2833 36.788 53.8291 36.8465 51.7855 37.119C49.7228 37.394 48.1721 37.8771 47.3363 38.7127C45.7338 40.3153 45.5217 41.7859 45.1508 44.4578C45.0156 45.4313 44.8586 46.5541 44.6029 47.8817L44.5306 37.3885C44.4843 30.6773 49.8868 25.1989 56.598 25.1522L79.7318 24.992Z" fill="url(#paint0_radial_33_286)"/>
<path d="M82.2771 2.43273C82.2971 2.4377 82.3368 2.45168 82.3564 2.46043C82.3755 2.47045 82.4113 2.49367 82.4281 2.50675C82.471 2.54251 82.4992 2.58298 82.5168 2.61739C82.534 2.65113 82.543 2.68251 82.5478 2.70504C82.5526 2.72777 82.5544 2.74792 82.5551 2.7626C82.5558 2.77736 82.5559 2.79065 82.5554 2.80069C82.5542 2.82009 82.5508 2.83621 82.5489 2.84664C82.5469 2.85731 82.5451 2.86691 82.5432 2.87403C82.5397 2.88778 82.5357 2.90052 82.5328 2.90927C82.5297 2.91843 82.5262 2.92791 82.5232 2.93571C82.5202 2.94354 82.5168 2.95161 82.5136 2.95922C82.5073 2.97454 82.5 2.99163 82.4925 3.00822C82.4777 3.04134 82.4592 3.07953 82.4397 3.11996C82.4004 3.20149 82.3523 3.29818 82.3041 3.39153C82.256 3.48476 82.2067 3.578 82.1655 3.65239C82.1451 3.68926 82.1249 3.72392 82.1077 3.75245C82.0992 3.76658 82.0907 3.78195 82.0817 3.79563C82.0771 3.80248 82.0711 3.81016 82.0653 3.81822C82.0598 3.82569 82.0516 3.83741 82.0411 3.84966C82.0357 3.85588 82.0276 3.86475 82.0178 3.87425C82.0128 3.87909 82.0058 3.88478 81.9984 3.89101C81.9911 3.89722 81.9812 3.90556 81.9693 3.9137C81.9576 3.92171 81.9406 3.93257 81.9197 3.9424C81.9154 3.94444 81.9094 3.94434 81.9041 3.94643C78.7501 9.17533 75.0988 12.6013 70.2595 14.7398C65.243 16.9566 58.9816 17.7771 50.7441 17.8415C44.2246 17.8924 39.0051 21.0537 34.9734 25.1318C33.492 26.6302 32.1742 28.2498 31.0142 29.8787C33.8933 15.8837 45.7548 4.95615 60.7527 3.89085L80.9999 2.45247C81.2759 2.53319 81.5492 2.61963 81.8193 2.71268C81.8262 2.70146 81.8333 2.6902 81.8396 2.6803C81.8528 2.65932 81.8651 2.63992 81.8762 2.62337C81.8818 2.61509 81.888 2.60669 81.8936 2.59882C81.8991 2.59106 81.9053 2.58179 81.912 2.57328C81.9183 2.56526 81.9278 2.55391 81.9391 2.54182C81.945 2.5355 81.954 2.52644 81.9643 2.51721C81.9695 2.51252 81.9762 2.50626 81.9837 2.50045C81.9912 2.49459 82.0012 2.48706 82.0128 2.47972C82.0245 2.47238 82.0408 2.46354 82.0605 2.45493C82.0801 2.44636 82.1086 2.4358 82.1433 2.42987C82.1784 2.42391 82.2249 2.42148 82.2771 2.43273Z" fill="url(#paint1_radial_33_286)"/>
<path d="M28.2697 52.159C29.5397 51.6509 32.9942 50.1777 33.6038 45.3008C34.3659 39.2046 35.8899 27.0122 36.6519 26.2502C37.4139 25.4882 39.7 20.154 48.8443 20.154C57.9886 20.154 72.1138 18.4584 75.7831 16.1452" stroke="#007C91" stroke-width="0.609618" stroke-dasharray="3.19 3.99"/>
<defs>
<radialGradient id="paint0_radial_33_286" cx="0" cy="0" r="1" gradientTransform="matrix(-32.1603 -22.4986 25.1224 -31.363 83.2709 51.5767)" gradientUnits="userSpaceOnUse">
<stop offset="0.740385" stop-color="#007C91"/>
<stop offset="1" stop-color="#006D80"/>
</radialGradient>
<radialGradient id="paint1_radial_33_286" cx="0" cy="0" r="1" gradientTransform="matrix(-101.382 -10.9313 22.6806 -82.6382 118.249 49.4326)" gradientUnits="userSpaceOnUse">
<stop offset="0.740385" stop-color="#007C91"/>
<stop offset="1" stop-color="#005A69"/>
</radialGradient>
</defs>
</svg>
